<?xml version="1.0" encoding="utf-8"?>
<!-- Generator: Adobe Illustrator 26.0.3, SVG Export Plug-In . SVG Version: 6.00 Build 0)  -->
<svg version="1.1" id="Layer_1" xmlns="http://www.w3.org/2000/svg" xmlns:xlink="http://www.w3.org/1999/xlink" x="0px" y="0px"
	 viewBox="0 0 125.03 57.61" style="enable-background:new 0 0 125.03 57.61;" xml:space="preserve">
<style type="text/css">
	.st0{fill:#0560AA;}
	.st1{clip-path:url(#SVGID_00000147195771117671315120000003606318206971510160_);fill:#2C386B;}
	.st2{clip-path:url(#SVGID_00000026125852352135899220000015784012502119818635_);fill:#2C386B;}
	.st3{clip-path:url(#SVGID_00000083075414486765311270000010697566922422626458_);fill:#2C386B;}
	.st4{clip-path:url(#SVGID_00000102529401894806694650000011031110314667481763_);fill:#E2051D;}
	.st5{clip-path:url(#SVGID_00000114058318643334455970000011904811890097871511_);fill:#E2051D;}
	.st6{clip-path:url(#SVGID_00000021112904771896380000000003876514341028326809_);fill:#2C386B;}
	.st7{clip-path:url(#SVGID_00000178166377812338852050000009571653076424274826_);fill:#2C386B;}
	.st8{clip-path:url(#SVGID_00000082326610259666116110000004617754932007830697_);fill:#2C386B;}
	.st9{clip-path:url(#SVGID_00000180339921155310955790000000615227474508496558_);fill:#2C386B;}
	.st10{clip-path:url(#SVGID_00000147207399664597156290000013815488383415630246_);fill:#2C386B;}
	.st11{clip-path:url(#SVGID_00000018199212593358298560000000828983203221901212_);fill:#2C386B;}
	.st12{clip-path:url(#SVGID_00000165207779399773365560000001708018181395488942_);fill:#2C386B;}
	.st13{clip-path:url(#SVGID_00000109023477167194427040000007205483119642625942_);fill:#2C386B;}
	.st14{clip-path:url(#SVGID_00000006682504665785623350000002242705884210102425_);fill:#2C386B;}
	.st15{clip-path:url(#SVGID_00000046317821616261987380000015536093222321262467_);fill:#2C386B;}
	.st16{clip-path:url(#SVGID_00000025408515941414242560000016273517164228867993_);fill:#2C386B;}
	.st17{clip-path:url(#SVGID_00000177449265920838379530000006423787615050684823_);fill:#2C386B;}
	.st18{clip-path:url(#SVGID_00000055675755955962864350000006832927063271370917_);fill:#2C386B;}
	.st19{clip-path:url(#SVGID_00000000917786042380926140000002516703945907293874_);fill:#2C386B;}
</style>
<g>
	<path class="st0" d="M30.77,21.9c-0.5,7-4.9,11.1-12.1,11.1c-8.1,0-13.1-5.4-13.1-14c0-8.7,5-14,12.9-14c7.3,0,11.7,3.9,12.2,10.8
		h-7.8c-0.3-2.7-1.7-4.1-4.3-4.1c-3.2,0-4.8,2.4-4.8,7.3s1.7,7.3,5,7.3c2.5,0,4.1-1.6,4.3-4.4H30.77L30.77,21.9z M32.37,5.6h7.4v9.1
		c1.5-1.7,3.4-2.6,5.7-2.6c2.4,0,4.2,0.8,5.4,2.4c1.4,1.8,1.5,4.2,1.5,7.6v10.2h-7.4V22c0-2.7-0.5-3.9-2.5-3.9c-1.9,0-2.8,1.3-2.8,4
		v10.1h-7.3V5.6z M74.97,32.2h-6.8v-2.9c-1.7,2.3-3.8,3.4-6.5,3.4c-2.3,0-4.1-0.8-5.3-2.4c-1.4-1.8-1.5-4.2-1.5-7.6V12.5h7.4v10.2
		c0,2.7,0.5,3.9,2.5,3.9c1.9,0,2.8-1.3,2.8-4V12.5h7.4V32.2L74.97,32.2z M77.57,5.6h7.2v9c1.5-1.7,3.3-2.6,5.3-2.6
		c4.9,0,8.1,4.1,8.1,10.5s-3.3,10.4-8,10.4c-2.5,0-4.5-1-6.1-3.1v2.4h-6.6L77.57,5.6L77.57,5.6z M87.77,27.1c1.9,0,3-1.6,3-4.5
		c0-3.1-0.9-4.5-3-4.5s-3.1,1.5-3.1,4.5C84.77,25.5,85.87,27.1,87.77,27.1 M99.87,5.6h7.2v9c1.5-1.7,3.3-2.6,5.3-2.6
		c4.9,0,8.1,4.1,8.1,10.5s-3.3,10.4-8,10.4c-2.5,0-4.5-1-6.1-3.1v2.4h-6.6L99.87,5.6L99.87,5.6z M110.07,27.1c1.9,0,3-1.6,3-4.5
		c0-3.1-0.9-4.5-3-4.5s-3.1,1.5-3.1,4.5C107.07,25.5,108.27,27.1,110.07,27.1"/>
</g>
<g>
	<g>
		<g>
			<defs>
				<rect id="SVGID_1_" x="5.57" y="41.83" width="115" height="9"/>
			</defs>
			<clipPath id="SVGID_00000175316414588576176150000006598096163615118233_">
				<use xlink:href="#SVGID_1_"  style="overflow:visible;"/>
			</clipPath>
			<path style="clip-path:url(#SVGID_00000175316414588576176150000006598096163615118233_);fill:#2C386B;" d="M72.97,45.13
				c0,2.1-1.6,3.2-3.8,3.2h-1.9v2.6h-2.1v-8.8h4.2C71.57,42.03,72.97,43.13,72.97,45.13 M69.17,43.83h-1.9v2.7h2
				c1,0,1.5-0.4,1.5-1.3C70.77,44.33,70.17,43.83,69.17,43.83"/>
		</g>
	</g>
	<g>
		<g>
			<defs>
				<rect id="SVGID_00000072276395696029556300000016568304059812418750_" x="5.57" y="41.83" width="115" height="9"/>
			</defs>
			<clipPath id="SVGID_00000146484789300028760110000009934724597440188561_">
				<use xlink:href="#SVGID_00000072276395696029556300000016568304059812418750_"  style="overflow:visible;"/>
			</clipPath>
			<polygon style="clip-path:url(#SVGID_00000146484789300028760110000009934724597440188561_);fill:#2C386B;" points="59.87,45.63 
				59.17,47.23 57.47,50.83 55.07,50.83 59.67,42.03 60.07,42.03 64.67,50.83 62.27,50.83 60.57,47.23 59.97,45.63 			"/>
		</g>
	</g>
	<g>
		<g>
			<defs>
				<rect id="SVGID_00000119838183215090437350000008842471370732771456_" x="5.57" y="41.83" width="115" height="9"/>
			</defs>
			<clipPath id="SVGID_00000022524966877356825510000016146772515167945137_">
				<use xlink:href="#SVGID_00000119838183215090437350000008842471370732771456_"  style="overflow:visible;"/>
			</clipPath>
			
				<rect x="73.67" y="44.63" style="clip-path:url(#SVGID_00000022524966877356825510000016146772515167945137_);fill:#2C386B;" width="2.1" height="6.2"/>
		</g>
	</g>
	<g>
		<g>
			<defs>
				<rect id="SVGID_00000042010962918600646840000011122870449599562937_" x="5.57" y="41.83" width="115" height="9"/>
			</defs>
			<clipPath id="SVGID_00000077282072805800616550000014624767765082096546_">
				<use xlink:href="#SVGID_00000042010962918600646840000011122870449599562937_"  style="overflow:visible;"/>
			</clipPath>
			<path style="clip-path:url(#SVGID_00000077282072805800616550000014624767765082096546_);fill:#E2051D;" d="M75.77,43.03
				c0-0.6-0.5-1.1-1.1-1.1s-1.1,0.5-1.1,1.1s0.5,1.1,1.1,1.1S75.77,43.63,75.77,43.03"/>
		</g>
	</g>
	<g>
		<g>
			<defs>
				<rect id="SVGID_00000083069564400120389900000009664263530604072843_" x="5.57" y="41.83" width="115" height="9"/>
			</defs>
			<clipPath id="SVGID_00000113331121881724381040000003877163368822356401_">
				<use xlink:href="#SVGID_00000083069564400120389900000009664263530604072843_"  style="overflow:visible;"/>
			</clipPath>
			<path style="clip-path:url(#SVGID_00000113331121881724381040000003877163368822356401_);fill:#E2051D;" d="M60.97,49.73
				c0-0.6-0.5-1.1-1.1-1.1s-1.1,0.5-1.1,1.1s0.5,1.1,1.1,1.1C60.47,50.83,60.97,50.33,60.97,49.73"/>
		</g>
	</g>
	<g>
		<g>
			<defs>
				<rect id="SVGID_00000057857077756601797160000004517251162033676932_" x="5.57" y="41.83" width="115" height="9"/>
			</defs>
			<clipPath id="SVGID_00000156574567402080843420000006909802361818289808_">
				<use xlink:href="#SVGID_00000057857077756601797160000004517251162033676932_"  style="overflow:visible;"/>
			</clipPath>
			<path style="clip-path:url(#SVGID_00000156574567402080843420000006909802361818289808_);fill:#2C386B;" d="M83.57,50.93
				c-2.7,0-4.5-1.9-4.5-4.4l0,0c0-2.4,1.9-4.4,4.5-4.4c1.5,0,2.5,0.4,3.4,1.2l-1.2,1.4c-0.7-0.6-1.3-0.9-2.2-0.9
				c-1.4,0-2.5,1.2-2.5,2.7l0,0c0,1.6,1.1,2.7,2.6,2.7c0.7,0,1.3-0.2,1.8-0.5v-1.2h-1.9v-1.6h3.7v3.6
				C86.37,50.33,85.17,50.93,83.57,50.93"/>
		</g>
	</g>
	<g>
		<g>
			<defs>
				<rect id="SVGID_00000012431626342162789560000012179348930312407997_" x="5.57" y="41.83" width="115" height="9"/>
			</defs>
			<clipPath id="SVGID_00000130637852612570986240000011944198775198980266_">
				<use xlink:href="#SVGID_00000012431626342162789560000012179348930312407997_"  style="overflow:visible;"/>
			</clipPath>
			<path style="clip-path:url(#SVGID_00000130637852612570986240000011944198775198980266_);fill:#2C386B;" d="M93.37,50.83
				l-1.8-2.8h-1.5v2.8h-1.9v-8.6h3.9c2,0,3.2,1.1,3.2,2.8l0,0c0,1.4-0.7,2.3-1.8,2.7l2.1,3.1H93.37z M93.47,45.13
				c0-0.8-0.6-1.2-1.5-1.2h-1.9v2.5h1.9C92.87,46.33,93.47,45.93,93.47,45.13L93.47,45.13z"/>
		</g>
	</g>
	<g>
		<g>
			<defs>
				<rect id="SVGID_00000017476485976496637750000000509363014716887950_" x="5.57" y="41.83" width="115" height="9"/>
			</defs>
			<clipPath id="SVGID_00000174595341996366092210000017397643803705442962_">
				<use xlink:href="#SVGID_00000017476485976496637750000000509363014716887950_"  style="overflow:visible;"/>
			</clipPath>
			<path style="clip-path:url(#SVGID_00000174595341996366092210000017397643803705442962_);fill:#2C386B;" d="M100.27,50.73
				c-2.7,0-4.6-2-4.6-4.4l0,0c0-2.4,1.9-4.4,4.6-4.4s4.6,2,4.6,4.4l0,0C104.87,48.73,102.97,50.73,100.27,50.73 M102.87,46.33
				c0-1.5-1.1-2.7-2.6-2.7s-2.6,1.2-2.6,2.7l0,0c0,1.5,1.1,2.7,2.6,2.7S102.87,47.83,102.87,46.33L102.87,46.33z"/>
		</g>
	</g>
	<g>
		<g>
			<defs>
				<rect id="SVGID_00000064355005545051285040000004888780059649073840_" x="5.57" y="41.83" width="115" height="9"/>
			</defs>
			<clipPath id="SVGID_00000091705688256545363520000012133096601574921095_">
				<use xlink:href="#SVGID_00000064355005545051285040000004888780059649073840_"  style="overflow:visible;"/>
			</clipPath>
			<path style="clip-path:url(#SVGID_00000091705688256545363520000012133096601574921095_);fill:#2C386B;" d="M109.27,50.93
				c-2.3,0-3.7-1.3-3.7-3.8v-4.9h1.9v4.9c0,1.4,0.7,2.1,1.9,2.1c1.2,0,1.9-0.7,1.9-2.1v-4.9h1.9v4.9
				C113.07,49.63,111.67,50.93,109.27,50.93"/>
		</g>
	</g>
</g>
<g>
	<g>
		<g>
			<defs>
				<rect id="SVGID_00000102544870329522040060000014429551247293612689_" x="5.57" y="41.83" width="115" height="9"/>
			</defs>
			<clipPath id="SVGID_00000054957351251356885970000017880379462058563500_">
				<use xlink:href="#SVGID_00000102544870329522040060000014429551247293612689_"  style="overflow:visible;"/>
			</clipPath>
			<path style="clip-path:url(#SVGID_00000054957351251356885970000017880379462058563500_);fill:#2C386B;" d="M117.07,48.23h-1.4
				v2.6h-1.9v-8.6h3.5c2.1,0,3.3,1.2,3.3,3l0,0C120.57,47.23,119.07,48.23,117.07,48.23 M118.67,45.23c0-0.8-0.6-1.3-1.5-1.3h-1.5
				v2.6h1.5C118.17,46.53,118.67,45.93,118.67,45.23L118.67,45.23z"/>
		</g>
	</g>
	<g>
		<g>
			<defs>
				<rect id="SVGID_00000031190496838705542130000007908895333781530273_" x="5.57" y="41.83" width="115" height="9"/>
			</defs>
			<clipPath id="SVGID_00000061465577803973393060000010845464291691956870_">
				<use xlink:href="#SVGID_00000031190496838705542130000007908895333781530273_"  style="overflow:visible;"/>
			</clipPath>
			<path style="clip-path:url(#SVGID_00000061465577803973393060000010845464291691956870_);fill:#2C386B;" d="M5.57,43.73h1.7
				c1.5,0,2.2,0.5,2.2,1.7s-0.7,1.7-2.3,1.7h-1.1v2.2h-0.6v-5.6C5.47,43.73,5.57,43.73,5.57,43.73z M7.27,46.63
				c1.1,0,1.6-0.3,1.6-1.2c0-0.8-0.5-1.2-1.6-1.2h-1.1v2.4H7.27z"/>
		</g>
	</g>
</g>
<g>
	<g>
		<g>
			<defs>
				<rect id="SVGID_00000087382875168628296680000018291597721590652053_" x="5.57" y="41.83" width="115" height="9"/>
			</defs>
			<clipPath id="SVGID_00000169550910261212629890000001536411822331982745_">
				<use xlink:href="#SVGID_00000087382875168628296680000018291597721590652053_"  style="overflow:visible;"/>
			</clipPath>
			<path style="clip-path:url(#SVGID_00000169550910261212629890000001536411822331982745_);fill:#2C386B;" d="M9.97,46.53
				c0-1.7,1.1-2.9,2.7-2.9s2.7,1.2,2.7,2.9s-1.1,2.9-2.7,2.9S9.97,48.23,9.97,46.53 M14.77,46.63L14.77,46.63c0-1.5-0.8-2.4-2.1-2.4
				c-1.3,0-2.1,0.9-2.1,2.3l0,0c0,1.4,0.8,2.3,2.1,2.3C13.97,48.93,14.77,48.03,14.77,46.63"/>
		</g>
	</g>
	<g>
		<g>
			<defs>
				<rect id="SVGID_00000084496008391920979950000016483176591667455922_" x="5.57" y="41.83" width="115" height="9"/>
			</defs>
			<clipPath id="SVGID_00000156581975341453691610000017789106894522670480_">
				<use xlink:href="#SVGID_00000084496008391920979950000016483176591667455922_"  style="overflow:visible;"/>
			</clipPath>
			<polygon style="clip-path:url(#SVGID_00000156581975341453691610000017789106894522670480_);fill:#2C386B;" points="15.57,43.73 
				16.27,43.73 17.47,48.43 18.87,43.73 19.47,43.73 20.87,48.43 22.07,43.73 22.77,43.73 21.17,49.33 20.57,49.33 19.17,44.63 
				17.67,49.33 17.07,49.33 			"/>
		</g>
	</g>
	<g>
		<g>
			<defs>
				<rect id="SVGID_00000044152502491586092790000017430732065845165201_" x="5.57" y="41.83" width="115" height="9"/>
			</defs>
			<clipPath id="SVGID_00000058590323513625812510000018178414361589558675_">
				<use xlink:href="#SVGID_00000044152502491586092790000017430732065845165201_"  style="overflow:visible;"/>
			</clipPath>
			<polygon style="clip-path:url(#SVGID_00000058590323513625812510000018178414361589558675_);fill:#2C386B;" points="23.47,43.73 
				27.17,43.73 27.17,44.33 24.07,44.33 24.07,46.13 26.07,46.13 26.07,46.63 24.07,46.63 24.07,48.83 27.37,48.83 27.37,49.33 
				23.47,49.33 			"/>
		</g>
	</g>
	<g>
		<g>
			<defs>
				<rect id="SVGID_00000065061190758851483630000013525053808201580930_" x="5.57" y="41.83" width="115" height="9"/>
			</defs>
			<clipPath id="SVGID_00000043442155715196276670000007702804855202670249_">
				<use xlink:href="#SVGID_00000065061190758851483630000013525053808201580930_"  style="overflow:visible;"/>
			</clipPath>
			<path style="clip-path:url(#SVGID_00000043442155715196276670000007702804855202670249_);fill:#2C386B;" d="M28.07,43.73h1.9
				c1.4,0,2.1,0.5,2.1,1.4c0,0.8-0.4,1.4-1.4,1.5c1,0.3,1.4,1.1,1.6,2.4v0.2h-0.6v-0.2c-0.2-1.3-0.6-2.2-1.9-2.2h-0.9v2.4h-0.6v-5.5
				C28.27,43.73,28.07,43.73,28.07,43.73z M29.77,46.43c1.2,0,1.6-0.5,1.6-1.2s-0.4-1-1.4-1h-1.3v2.2H29.77z"/>
		</g>
	</g>
	<g>
		<g>
			<defs>
				<rect id="SVGID_00000050659010150974695840000004510222017319136399_" x="5.57" y="41.83" width="115" height="9"/>
			</defs>
			<clipPath id="SVGID_00000042009207005666464390000010311339418074611634_">
				<use xlink:href="#SVGID_00000050659010150974695840000004510222017319136399_"  style="overflow:visible;"/>
			</clipPath>
			<polygon style="clip-path:url(#SVGID_00000042009207005666464390000010311339418074611634_);fill:#2C386B;" points="32.87,43.73 
				36.57,43.73 36.57,44.33 33.47,44.33 33.47,46.13 35.47,46.13 35.47,46.63 33.47,46.63 33.47,48.83 36.77,48.83 36.77,49.33 
				32.87,49.33 			"/>
		</g>
	</g>
	<g>
		<g>
			<defs>
				<rect id="SVGID_00000048494610901432131980000011668287258876608690_" x="5.57" y="41.83" width="115" height="9"/>
			</defs>
			<clipPath id="SVGID_00000062901344970234358330000009783218378010880420_">
				<use xlink:href="#SVGID_00000048494610901432131980000011668287258876608690_"  style="overflow:visible;"/>
			</clipPath>
			<path style="clip-path:url(#SVGID_00000062901344970234358330000009783218378010880420_);fill:#2C386B;" d="M37.47,43.73h1.8
				c1.9,0,2.8,0.9,2.8,2.8s-1,2.8-2.9,2.8h-1.7C37.47,49.33,37.47,43.73,37.47,43.73z M39.17,48.83c1.5,0,2.3-0.7,2.3-2.2v-0.1
				c0-1.6-0.7-2.2-2.2-2.2h-1.2v4.5H39.17z"/>
		</g>
	</g>
	<g>
		<g>
			<defs>
				<rect id="SVGID_00000025444980812291769430000002049263980539074958_" x="5.57" y="41.83" width="115" height="9"/>
			</defs>
			<clipPath id="SVGID_00000033339691990248306460000002315253485997439145_">
				<use xlink:href="#SVGID_00000025444980812291769430000002049263980539074958_"  style="overflow:visible;"/>
			</clipPath>
			<path style="clip-path:url(#SVGID_00000033339691990248306460000002315253485997439145_);fill:#2C386B;" d="M45.47,43.73h2
				c1.2,0,1.8,0.5,1.8,1.4c0,0.6-0.3,1-0.9,1.2c0.8,0.2,1.2,0.7,1.2,1.4c0,1.1-0.7,1.6-2,1.6h-2.1V43.73z M47.27,46.13
				c0.9,0,1.4-0.3,1.4-0.9c0-0.7-0.3-0.9-1.2-0.9h-1.4v1.9h1.2V46.13z M47.47,48.83c0.9,0,1.4-0.4,1.4-1.1s-0.5-1.1-1.5-1.1h-1.3
				v2.2C46.07,48.83,47.47,48.83,47.47,48.83z"/>
		</g>
	</g>
	<g>
		<g>
			<defs>
				<rect id="SVGID_00000041261286807562383340000014325666677963835268_" x="5.57" y="41.83" width="115" height="9"/>
			</defs>
			<clipPath id="SVGID_00000162323612334820400160000015563342337901218476_">
				<use xlink:href="#SVGID_00000041261286807562383340000014325666677963835268_"  style="overflow:visible;"/>
			</clipPath>
			<polygon style="clip-path:url(#SVGID_00000162323612334820400160000015563342337901218476_);fill:#2C386B;" points="51.37,46.73 
				49.47,43.73 50.17,43.73 51.67,46.23 53.37,43.73 53.97,43.73 51.97,46.73 51.97,49.33 51.37,49.33 			"/>
		</g>
	</g>
</g>
</svg>
